<svg xmlns="http://www.w3.org/2000/svg" viewBox="0 0 256 256">
  <g>
    <path fill="#ffffff" d="M88 24c-22 0-40 18-40 40v8c-18 6-32 24-32 44 0 20 12 38 30 44-2 6-2 12-2 16 0 31 25 56 56 56h8V24H88zm80 0h-8v208h8c31 0 56-25 56-56 0-4 0-10-2-16 18-6 30-24 30-44 0-20-14-38-32-44v-8c0-22-18-40-40-40z"/>
    <animateTransform
      attributeName="transform"
      type="scale"
      additive="replace"
      dur="1.4s"
      values="1;1.08;1"
      repeatCount="indefinite"
      calcMode="spline"
      keyTimes="0;0.5;1"
      keySplines=".25,.1,.25,1;.25,.1,.25,1" />
  </g>
</svg>
